<?xml version="1.0" encoding="UTF-8"?>
<svg width="180px" height="180px" viewBox="0 0 180 180" version="1.1" xmlns="http://www.w3.org/2000/svg" xmlns:xlink="http://www.w3.org/1999/xlink">
    <!-- Generator: Sketch 57.1 (83088) - https://sketch.com -->
    <title>180 Square</title>
    <desc>Created with Sketch.</desc>
    <defs>
        <path d="M94,0 C100.02426,0 105.270902,3.32937875 108.000281,8.24849136 C110.729098,3.32937875 115.97574,0 122,0 L200,0 C206.02426,0 211.270902,3.32937875 214.000281,8.24849136 C216.729098,3.32937875 221.97574,0 228,0 L306,0 C314.836556,0 322,7.163444 322,16 L322,94 C322,102.836556 314.836556,110 306,110 L228,110 C221.97574,110 216.729098,106.670621 213.999719,101.751509 C211.270902,106.670621 206.02426,110 200,110 L122,110 C115.97574,110 110.729098,106.670621 107.999719,101.751509 C105.270902,106.670621 100.02426,110 94,110 L16,110 C7.163444,110 0,102.836556 0,94 L0,16 C0,7.163444 7.163444,0 16,0 L94,0 Z" id="path-1"></path>
        <linearGradient x1="50%" y1="0%" x2="50%" y2="18.5927454%" id="linearGradient-3">
            <stop stop-color="#B846A6" offset="0%"></stop>
            <stop stop-color="#D8D8D8" stop-opacity="0" offset="100%"></stop>
        </linearGradient>
        <linearGradient x1="50%" y1="0%" x2="50%" y2="25.6549191%" id="linearGradient-4">
            <stop stop-color="#E35B57" offset="0%"></stop>
            <stop stop-color="#333333" stop-opacity="0" offset="100%"></stop>
        </linearGradient>
        <linearGradient x1="50%" y1="7.33986631%" x2="50%" y2="60.0055163%" id="linearGradient-5">
            <stop stop-color="#F6C766" offset="0%"></stop>
            <stop stop-color="#D8D8D8" stop-opacity="0" offset="100%"></stop>
        </linearGradient>
        <linearGradient x1="50%" y1="0%" x2="50%" y2="34.9833946%" id="linearGradient-6">
            <stop stop-color="#4F60C4" offset="0%"></stop>
            <stop stop-color="#D8D8D8" stop-opacity="0" offset="100%"></stop>
        </linearGradient>
        <linearGradient x1="50%" y1="50%" x2="0%" y2="50%" id="linearGradient-7">
            <stop stop-color="#333333" offset="0%"></stop>
            <stop stop-color="#888888" offset="100%"></stop>
        </linearGradient>
        <linearGradient x1="50%" y1="50%" x2="100%" y2="50%" id="linearGradient-8">
            <stop stop-color="#333333" offset="0%"></stop>
            <stop stop-color="#888888" offset="100%"></stop>
        </linearGradient>
    </defs>
    <g id="180-Square" stroke="none" stroke-width="1" fill="none" fill-rule="evenodd">
        <rect fill="#FFFFFF" x="0" y="0" width="180" height="180"></rect>
        <circle id="Right" fill="#888888" cx="106" cy="161.5" r="4"></circle>
        <circle id="Left" fill="#888888" cx="74" cy="161.5" r="4"></circle>
        <circle id="Middle" fill="#333333" cx="90" cy="161.5" r="4"></circle>
        <g id="Group" transform="translate(-71.000000, 31.000000)">
            <mask id="mask-2" fill="white">
                <use xlink:href="#path-1"></use>
            </mask>
            <use id="Mask" fill-opacity="0.75" fill="#333333" fill-rule="nonzero" xlink:href="#path-1"></use>
            <rect id="Rectangle" fill="#EE7571" mask="url(#mask-2)" x="60" y="-7" width="207" height="123"></rect>
            <polygon id="Path-3" fill="url(#linearGradient-3)" mask="url(#mask-2)" points="58 54.5 70.390625 47.6992188 75.0039062 49.6992188 86.7485002 48.9972499 96.7226563 52.0996094 108 49.6992188 113.958984 44.7519531 117.365528 45.2098555 121.398438 45.7519531 131.416016 50.1259766 147 45.7519531 160.486328 49.6992188 174 47.6992188 192.376953 52.7519531 203.835482 48.7170847 211.367187 51.1259766 222.320313 52.0996094 235.554688 50.1259766 253.625 52.0996094 270.189453 116 270.189453 205.748047 25.9257812 183.419922"></polygon>
            <polygon id="Path-2" fill="url(#linearGradient-4)" fill-rule="nonzero" mask="url(#mask-2)" points="60 59 78.921875 51.640625 87.5488281 55 97.0898438 55 106 54.5 117.376953 49.1210938 127.382812 45.7519531 133.919922 51.640625 141 51.640625 149 55 165 55 177 51.640625 188.726563 49.1210938 203.265625 55 212 55 231.818359 59 240.273438 59 251 49.1210938 264.365234 49.1210938 277.505859 161.978516 102.894531 174.435547 36.0957031 161.978516 55 69.2675781"></polygon>
            <polygon id="Path" fill="url(#linearGradient-5)" mask="url(#mask-2)" points="173 57.140625 181 54.5703125 197.712891 61.5175781 222.048828 59 235.654297 52 245.855469 57.140625 259.986328 58.5703125 259.986328 161.978516 64.9863281 161.978516 64.9863281 71.5175781 71 55 84.3828125 60.140625 91.5820312 55.5703125 101.132812 63 123.171875 58.5703125 136.035156 62.140625 145 50.2675781 149 50.2675781 161 41.5957031"></polygon>
            <path d="M64.9863281,87.7324219 C70.0175781,85.2311198 74.8990885,84.764974 79.6308594,86.3339844 C86.7285156,88.6875 94.2792969,86.9472656 103.257813,86.9472656 C112.236328,86.9472656 116.816406,93.515625 124.146484,88.5878906 C131.476563,83.6601562 145,88.6875 157.142578,84.3085937 C169.285156,79.9296875 173,88.6875 186.271484,88.6875 C199.542969,88.6875 202.259766,84.2714844 212,87.7324219 C221.740234,91.1933594 235.845703,88.6875 242.425781,85.0839844 C246.8125,82.6816406 256.296875,86.1822917 270.878906,95.5859375 L273.796875,196.65625 L44.2675781,186.078125 L29.4492188,143.5 C53.140625,106.321615 64.9863281,87.7324219 64.9863281,87.7324219 Z" id="Path-4" fill="url(#linearGradient-6)" mask="url(#mask-2)"></path>
        </g>
        <path d="M157,31 L235,31 C243.836556,31 251,38.163444 251,47 L251,125 C251,133.836556 243.836556,141 235,141 L157,141 C148.163444,141 141,133.836556 141,125 L141,47 C141,38.163444 148.163444,31 157,31 Z M157,35 C150.372583,35 145,40.372583 145,47 L145,125 C145,131.627417 150.372583,137 157,137 L235,137 C241.627417,137 247,131.627417 247,125 L247,47 C247,40.372583 241.627417,35 235,35 L157,35 Z" id="Right-Border" fill="url(#linearGradient-7)" fill-rule="nonzero"></path>
        <path d="M-55,31 L23,31 C31.836556,31 39,38.163444 39,47 L39,125 C39,133.836556 31.836556,141 23,141 L-55,141 C-63.836556,141 -71,133.836556 -71,125 L-71,47 C-71,38.163444 -63.836556,31 -55,31 Z M-55,35 C-61.627417,35 -67,40.372583 -67,47 L-67,125 C-67,131.627417 -61.627417,137 -55,137 L23,137 C29.627417,137 35,131.627417 35,125 L35,47 C35,40.372583 29.627417,35 23,35 L-55,35 Z" id="Left-Border" fill="url(#linearGradient-8)" fill-rule="nonzero"></path>
        <path d="M51,31 L129,31 C137.836556,31 145,38.163444 145,47 L145,125 C145,133.836556 137.836556,141 129,141 L51,141 C42.163444,141 35,133.836556 35,125 L35,47 C35,38.163444 42.163444,31 51,31 Z M51,35 C44.372583,35 39,40.372583 39,47 L39,125 C39,131.627417 44.372583,137 51,137 L129,137 C135.627417,137 141,131.627417 141,125 L141,47 C141,40.372583 135.627417,35 129,35 L51,35 Z" id="Middle-Border" fill="#333333" fill-rule="nonzero"></path>
    </g>
</svg>